0
SECTION
2
HEADER
9
$INSUNITS
70
4
0
ENDSEC
0
SECTION
2
TABLES
0
TABLE
2
LTYPE
0
LTYPE
72
65
70
64
2
CONTINUOUS
3
______
73
0
40
0
0
ENDTAB
0
TABLE
2
LAYER
0
ENDTAB
0
ENDSEC
0
SECTION
2
ENTITIES
0
LINE
8
0
10
174.475
20
-2.525
11
187.475
21
-2.525
0
LINE
8
0
10
174.475
20
-16.525
11
187.475
21
-16.525
0
LINE
8
0
10
173.975
20
-3.025
11
173.975
21
-16.025
0
LINE
8
0
10
187.975
20
-3.025
11
187.975
21
-16.025
0
ARC
8
0
10
174.475
20
-3.025
40
0.5
50
90
51
180
0
ARC
8
0
10
187.475
20
-3.025
40
0.5
50
0
51
90
0
ARC
8
0
10
174.475
20
-16.025
40
0.5
50
180
51
270
0
ARC
8
0
10
187.475
20
-16.025
40
0.5
50
270
51
0
0
LINE
8
0
10
193.525
20
-2.525
11
206.525
21
-2.525
0
LINE
8
0
10
193.525
20
-16.525
11
206.525
21
-16.525
0
LINE
8
0
10
193.025
20
-3.025
11
193.025
21
-16.025
0
LINE
8
0
10
207.025
20
-3.025
11
207.025
21
-16.025
0
ARC
8
0
10
193.525
20
-3.025
40
0.5
50
90
51
180
0
ARC
8
0
10
206.525
20
-3.025
40
0.5
50
0
51
90
0
ARC
8
0
10
193.525
20
-16.025
40
0.5
50
180
51
270
0
ARC
8
0
10
206.525
20
-16.025
40
0.5
50
270
51
0
0
LINE
8
0
10
212.575
20
-2.525
11
225.575
21
-2.525
0
LINE
8
0
10
212.575
20
-16.525
11
225.575
21
-16.525
0
LINE
8
0
10
212.075
20
-3.025
11
212.075
21
-16.025
0
LINE
8
0
10
226.075
20
-3.025
11
226.075
21
-16.025
0
ARC
8
0
10
212.575
20
-3.025
40
0.5
50
90
51
180
0
ARC
8
0
10
225.575
20
-3.025
40
0.5
50
0
51
90
0
ARC
8
0
10
212.575
20
-16.025
40
0.5
50
180
51
270
0
ARC
8
0
10
225.575
20
-16.025
40
0.5
50
270
51
0
0
LINE
8
0
10
12.55
20
-21.575
11
25.55
21
-21.575
0
LINE
8
0
10
12.55
20
-35.575
11
25.55
21
-35.575
0
LINE
8
0
10
12.05
20
-22.075
11
12.05
21
-35.075
0
LINE
8
0
10
26.05
20
-22.075
11
26.05
21
-35.075
0
ARC
8
0
10
12.55
20
-22.075
40
0.5
50
90
51
180
0
ARC
8
0
10
25.55
20
-22.075
40
0.5
50
0
51
90
0
ARC
8
0
10
12.55
20
-35.075
40
0.5
50
180
51
270
0
ARC
8
0
10
25.55
20
-35.075
40
0.5
50
270
51
0
0
LINE
8
0
10
31.6
20
-21.575
11
44.6
21
-21.575
0
LINE
8
0
10
31.6
20
-35.575
11
44.6
21
-35.575
0
LINE
8
0
10
31.1
20
-22.075
11
31.1
21
-35.075
0
LINE
8
0
10
45.1
20
-22.075
11
45.1
21
-35.075
0
ARC
8
0
10
31.6
20
-22.075
40
0.5
50
90
51
180
0
ARC
8
0
10
44.6
20
-22.075
40
0.5
50
0
51
90
0
ARC
8
0
10
31.6
20
-35.075
40
0.5
50
180
51
270
0
ARC
8
0
10
44.6
20
-35.075
40
0.5
50
270
51
0
0
LINE
8
0
10
50.65
20
-21.575
11
63.65
21
-21.575
0
LINE
8
0
10
50.65
20
-35.575
11
63.65
21
-35.575
0
LINE
8
0
10
50.15
20
-22.075
11
50.15
21
-35.075
0
LINE
8
0
10
64.15
20
-22.075
11
64.15
21
-35.075
0
ARC
8
0
10
50.65
20
-22.075
40
0.5
50
90
51
180
0
ARC
8
0
10
63.65
20
-22.075
40
0.5
50
0
51
90
0
ARC
8
0
10
50.65
20
-35.075
40
0.5
50
180
51
270
0
ARC
8
0
10
63.65
20
-35.075
40
0.5
50
270
51
0
0
LINE
8
0
10
69.7
20
-21.575
11
82.7
21
-21.575
0
LINE
8
0
10
69.7
20
-35.575
11
82.7
21
-35.575
0
LINE
8
0
10
69.2
20
-22.075
11
69.2
21
-35.075
0
LINE
8
0
10
83.2
20
-22.075
11
83.2
21
-35.075
0
ARC
8
0
10
69.7
20
-22.075
40
0.5
50
90
51
180
0
ARC
8
0
10
82.7
20
-22.075
40
0.5
50
0
51
90
0
ARC
8
0
10
69.7
20
-35.075
40
0.5
50
180
51
270
0
ARC
8
0
10
82.7
20
-35.075
40
0.5
50
270
51
0
0
LINE
8
0
10
164.95
20
-21.575
11
177.95
21
-21.575
0
LINE
8
0
10
164.95
20
-35.575
11
177.95
21
-35.575
0
LINE
8
0
10
164.45
20
-22.075
11
164.45
21
-35.075
0
LINE
8
0
10
178.45
20
-22.075
11
178.45
21
-35.075
0
ARC
8
0
10
164.95
20
-22.075
40
0.5
50
90
51
180
0
ARC
8
0
10
177.95
20
-22.075
40
0.5
50
0
51
90
0
ARC
8
0
10
164.95
20
-35.075
40
0.5
50
180
51
270
0
ARC
8
0
10
177.95
20
-35.075
40
0.5
50
270
51
0
0
LINE
8
0
10
184
20
-21.575
11
197
21
-21.575
0
LINE
8
0
10
184
20
-35.575
11
197
21
-35.575
0
LINE
8
0
10
183.5
20
-22.075
11
183.5
21
-35.075
0
LINE
8
0
10
197.5
20
-22.075
11
197.5
21
-35.075
0
ARC
8
0
10
184
20
-22.075
40
0.5
50
90
51
180
0
ARC
8
0
10
197
20
-22.075
40
0.5
50
0
51
90
0
ARC
8
0
10
184
20
-35.075
40
0.5
50
180
51
270
0
ARC
8
0
10
197
20
-35.075
40
0.5
50
270
51
0
0
LINE
8
0
10
203.05
20
-21.575
11
216.05
21
-21.575
0
LINE
8
0
10
203.05
20
-35.575
11
216.05
21
-35.575
0
LINE
8
0
10
202.55
20
-22.075
11
202.55
21
-35.075
0
LINE
8
0
10
216.55
20
-22.075
11
216.55
21
-35.075
0
ARC
8
0
10
203.05
20
-22.075
40
0.5
50
90
51
180
0
ARC
8
0
10
216.05
20
-22.075
40
0.5
50
0
51
90
0
ARC
8
0
10
203.05
20
-35.075
40
0.5
50
180
51
270
0
ARC
8
0
10
216.05
20
-35.075
40
0.5
50
270
51
0
0
LINE
8
0
10
222.1
20
-21.575
11
235.1
21
-21.575
0
LINE
8
0
10
222.1
20
-35.575
11
235.1
21
-35.575
0
LINE
8
0
10
221.6
20
-22.075
11
221.6
21
-35.075
0
LINE
8
0
10
235.6
20
-22.075
11
235.6
21
-35.075
0
ARC
8
0
10
222.1
20
-22.075
40
0.5
50
90
51
180
0
ARC
8
0
10
235.1
20
-22.075
40
0.5
50
0
51
90
0
ARC
8
0
10
222.1
20
-35.075
40
0.5
50
180
51
270
0
ARC
8
0
10
235.1
20
-35.075
40
0.5
50
270
51
0
0
LINE
8
0
10
241.15
20
-21.575
11
254.15
21
-21.575
0
LINE
8
0
10
241.15
20
-35.575
11
254.15
21
-35.575
0
LINE
8
0
10
240.65
20
-22.075
11
240.65
21
-35.075
0
LINE
8
0
10
254.65
20
-22.075
11
254.65
21
-35.075
0
ARC
8
0
10
241.15
20
-22.075
40
0.5
50
90
51
180
0
ARC
8
0
10
254.15
20
-22.075
40
0.5
50
0
51
90
0
ARC
8
0
10
241.15
20
-35.075
40
0.5
50
180
51
270
0
ARC
8
0
10
254.15
20
-35.075
40
0.5
50
270
51
0
0
LINE
8
0
10
260.2
20
-21.575
11
273.2
21
-21.575
0
LINE
8
0
10
260.2
20
-35.575
11
273.2
21
-35.575
0
LINE
8
0
10
259.7
20
-22.075
11
259.7
21
-35.075
0
LINE
8
0
10
273.7
20
-22.075
11
273.7
21
-35.075
0
ARC
8
0
10
260.2
20
-22.075
40
0.5
50
90
51
180
0
ARC
8
0
10
273.2
20
-22.075
40
0.5
50
0
51
90
0
ARC
8
0
10
260.2
20
-35.075
40
0.5
50
180
51
270
0
ARC
8
0
10
273.2
20
-35.075
40
0.5
50
270
51
0
0
LINE
8
0
10
3.025
20
-40.625
11
16.025
21
-40.625
0
LINE
8
0
10
3.025
20
-54.625
11
16.025
21
-54.625
0
LINE
8
0
10
2.525
20
-41.125
11
2.525
21
-54.125
0
LINE
8
0
10
16.525
20
-41.125
11
16.525
21
-54.125
0
ARC
8
0
10
3.025
20
-41.125
40
0.5
50
90
51
180
0
ARC
8
0
10
16.025
20
-41.125
40
0.5
50
0
51
90
0
ARC
8
0
10
3.025
20
-54.125
40
0.5
50
180
51
270
0
ARC
8
0
10
16.025
20
-54.125
40
0.5
50
270
51
0
0
LINE
8
0
10
22.075
20
-40.625
11
35.075
21
-40.625
0
LINE
8
0
10
22.075
20
-54.625
11
35.075
21
-54.625
0
LINE
8
0
10
21.575
20
-41.125
11
21.575
21
-54.125
0
LINE
8
0
10
35.575
20
-41.125
11
35.575
21
-54.125
0
ARC
8
0
10
22.075
20
-41.125
40
0.5
50
90
51
180
0
ARC
8
0
10
35.075
20
-41.125
40
0.5
50
0
51
90
0
ARC
8
0
10
22.075
20
-54.125
40
0.5
50
180
51
270
0
ARC
8
0
10
35.075
20
-54.125
40
0.5
50
270
51
0
0
LINE
8
0
10
41.125
20
-40.625
11
54.125
21
-40.625
0
LINE
8
0
10
41.125
20
-54.625
11
54.125
21
-54.625
0
LINE
8
0
10
40.625
20
-41.125
11
40.625
21
-54.125
0
LINE
8
0
10
54.625
20
-41.125
11
54.625
21
-54.125
0
ARC
8
0
10
41.125
20
-41.125
40
0.5
50
90
51
180
0
ARC
8
0
10
54.125
20
-41.125
40
0.5
50
0
51
90
0
ARC
8
0
10
41.125
20
-54.125
40
0.5
50
180
51
270
0
ARC
8
0
10
54.125
20
-54.125
40
0.5
50
270
51
0
0
LINE
8
0
10
60.175
20
-40.625
11
73.175
21
-40.625
0
LINE
8
0
10
60.175
20
-54.625
11
73.175
21
-54.625
0
LINE
8
0
10
59.675
20
-41.125
11
59.675
21
-54.125
0
LINE
8
0
10
73.675
20
-41.125
11
73.675
21
-54.125
0
ARC
8
0
10
60.175
20
-41.125
40
0.5
50
90
51
180
0
ARC
8
0
10
73.175
20
-41.125
40
0.5
50
0
51
90
0
ARC
8
0
10
60.175
20
-54.125
40
0.5
50
180
51
270
0
ARC
8
0
10
73.175
20
-54.125
40
0.5
50
270
51
0
0
LINE
8
0
10
79.225
20
-40.625
11
92.225
21
-40.625
0
LINE
8
0
10
79.225
20
-54.625
11
92.225
21
-54.625
0
LINE
8
0
10
78.725
20
-41.125
11
78.725
21
-54.125
0
LINE
8
0
10
92.725
20
-41.125
11
92.725
21
-54.125
0
ARC
8
0
10
79.225
20
-41.125
40
0.5
50
90
51
180
0
ARC
8
0
10
92.225
20
-41.125
40
0.5
50
0
51
90
0
ARC
8
0
10
79.225
20
-54.125
40
0.5
50
180
51
270
0
ARC
8
0
10
92.225
20
-54.125
40
0.5
50
270
51
0
0
LINE
8
0
10
98.275
20
-40.625
11
111.275
21
-40.625
0
LINE
8
0
10
98.275
20
-54.625
11
111.275
21
-54.625
0
LINE
8
0
10
97.775
20
-41.125
11
97.775
21
-54.125
0
LINE
8
0
10
111.775
20
-41.125
11
111.775
21
-54.125
0
ARC
8
0
10
98.275
20
-41.125
40
0.5
50
90
51
180
0
ARC
8
0
10
111.275
20
-41.125
40
0.5
50
0
51
90
0
ARC
8
0
10
98.275
20
-54.125
40
0.5
50
180
51
270
0
ARC
8
0
10
111.275
20
-54.125
40
0.5
50
270
51
0
0
LINE
8
0
10
117.325
20
-40.625
11
130.325
21
-40.625
0
LINE
8
0
10
117.325
20
-54.625
11
130.325
21
-54.625
0
LINE
8
0
10
116.825
20
-41.125
11
116.825
21
-54.125
0
LINE
8
0
10
130.825
20
-41.125
11
130.825
21
-54.125
0
ARC
8
0
10
117.325
20
-41.125
40
0.5
50
90
51
180
0
ARC
8
0
10
130.325
20
-41.125
40
0.5
50
0
51
90
0
ARC
8
0
10
117.325
20
-54.125
40
0.5
50
180
51
270
0
ARC
8
0
10
130.325
20
-54.125
40
0.5
50
270
51
0
0
LINE
8
0
10
136.375
20
-40.625
11
149.375
21
-40.625
0
LINE
8
0
10
136.375
20
-54.625
11
149.375
21
-54.625
0
LINE
8
0
10
135.875
20
-41.125
11
135.875
21
-54.125
0
LINE
8
0
10
149.875
20
-41.125
11
149.875
21
-54.125
0
ARC
8
0
10
136.375
20
-41.125
40
0.5
50
90
51
180
0
ARC
8
0
10
149.375
20
-41.125
40
0.5
50
0
51
90
0
ARC
8
0
10
136.375
20
-54.125
40
0.5
50
180
51
270
0
ARC
8
0
10
149.375
20
-54.125
40
0.5
50
270
51
0
0
LINE
8
0
10
155.425
20
-40.625
11
168.425
21
-40.625
0
LINE
8
0
10
155.425
20
-54.625
11
168.425
21
-54.625
0
LINE
8
0
10
154.925
20
-41.125
11
154.925
21
-54.125
0
LINE
8
0
10
168.925
20
-41.125
11
168.925
21
-54.125
0
ARC
8
0
10
155.425
20
-41.125
40
0.5
50
90
51
180
0
ARC
8
0
10
168.425
20
-41.125
40
0.5
50
0
51
90
0
ARC
8
0
10
155.425
20
-54.125
40
0.5
50
180
51
270
0
ARC
8
0
10
168.425
20
-54.125
40
0.5
50
270
51
0
0
LINE
8
0
10
174.475
20
-40.625
11
187.475
21
-40.625
0
LINE
8
0
10
174.475
20
-54.625
11
187.475
21
-54.625
0
LINE
8
0
10
173.975
20
-41.125
11
173.975
21
-54.125
0
LINE
8
0
10
187.975
20
-41.125
11
187.975
21
-54.125
0
ARC
8
0
10
174.475
20
-41.125
40
0.5
50
90
51
180
0
ARC
8
0
10
187.475
20
-41.125
40
0.5
50
0
51
90
0
ARC
8
0
10
174.475
20
-54.125
40
0.5
50
180
51
270
0
ARC
8
0
10
187.475
20
-54.125
40
0.5
50
270
51
0
0
LINE
8
0
10
193.525
20
-40.625
11
206.525
21
-40.625
0
LINE
8
0
10
193.525
20
-54.625
11
206.525
21
-54.625
0
LINE
8
0
10
193.025
20
-41.125
11
193.025
21
-54.125
0
LINE
8
0
10
207.025
20
-41.125
11
207.025
21
-54.125
0
ARC
8
0
10
193.525
20
-41.125
40
0.5
50
90
51
180
0
ARC
8
0
10
206.525
20
-41.125
40
0.5
50
0
51
90
0
ARC
8
0
10
193.525
20
-54.125
40
0.5
50
180
51
270
0
ARC
8
0
10
206.525
20
-54.125
40
0.5
50
270
51
0
0
LINE
8
0
10
212.575
20
-40.625
11
225.575
21
-40.625
0
LINE
8
0
10
212.575
20
-54.625
11
225.575
21
-54.625
0
LINE
8
0
10
212.075
20
-41.125
11
212.075
21
-54.125
0
LINE
8
0
10
226.075
20
-41.125
11
226.075
21
-54.125
0
ARC
8
0
10
212.575
20
-41.125
40
0.5
50
90
51
180
0
ARC
8
0
10
225.575
20
-41.125
40
0.5
50
0
51
90
0
ARC
8
0
10
212.575
20
-54.125
40
0.5
50
180
51
270
0
ARC
8
0
10
225.575
20
-54.125
40
0.5
50
270
51
0
0
LINE
8
0
10
231.625
20
-40.625
11
244.625
21
-40.625
0
LINE
8
0
10
231.625
20
-54.625
11
244.625
21
-54.625
0
LINE
8
0
10
231.125
20
-41.125
11
231.125
21
-54.125
0
LINE
8
0
10
245.125
20
-41.125
11
245.125
21
-54.125
0
ARC
8
0
10
231.625
20
-41.125
40
0.5
50
90
51
180
0
ARC
8
0
10
244.625
20
-41.125
40
0.5
50
0
51
90
0
ARC
8
0
10
231.625
20
-54.125
40
0.5
50
180
51
270
0
ARC
8
0
10
244.625
20
-54.125
40
0.5
50
270
51
0
0
LINE
8
0
10
260.2
20
-40.625
11
273.2
21
-40.625
0
LINE
8
0
10
260.2
20
-54.625
11
273.2
21
-54.625
0
LINE
8
0
10
259.7
20
-41.125
11
259.7
21
-54.125
0
LINE
8
0
10
273.7
20
-41.125
11
273.7
21
-54.125
0
ARC
8
0
10
260.2
20
-41.125
40
0.5
50
90
51
180
0
ARC
8
0
10
273.2
20
-41.125
40
0.5
50
0
51
90
0
ARC
8
0
10
260.2
20
-54.125
40
0.5
50
180
51
270
0
ARC
8
0
10
273.2
20
-54.125
40
0.5
50
270
51
0
0
LINE
8
0
10
279.25
20
-40.625
11
292.25
21
-40.625
0
LINE
8
0
10
279.25
20
-54.625
11
292.25
21
-54.625
0
LINE
8
0
10
278.75
20
-41.125
11
278.75
21
-54.125
0
LINE
8
0
10
292.75
20
-41.125
11
292.75
21
-54.125
0
ARC
8
0
10
279.25
20
-41.125
40
0.5
50
90
51
180
0
ARC
8
0
10
292.25
20
-41.125
40
0.5
50
0
51
90
0
ARC
8
0
10
279.25
20
-54.125
40
0.5
50
180
51
270
0
ARC
8
0
10
292.25
20
-54.125
40
0.5
50
270
51
0
0
LINE
8
0
10
3.025
20
-59.675
11
16.025
21
-59.675
0
LINE
8
0
10
3.025
20
-73.675
11
16.025
21
-73.675
0
LINE
8
0
10
2.525
20
-60.175
11
2.525
21
-73.175
0
LINE
8
0
10
16.525
20
-60.175
11
16.525
21
-73.175
0
ARC
8
0
10
3.025
20
-60.175
40
0.5
50
90
51
180
0
ARC
8
0
10
16.025
20
-60.175
40
0.5
50
0
51
90
0
ARC
8
0
10
3.025
20
-73.175
40
0.5
50
180
51
270
0
ARC
8
0
10
16.025
20
-73.175
40
0.5
50
270
51
0
0
LINE
8
0
10
31.6
20
-59.675
11
44.6
21
-59.675
0
LINE
8
0
10
31.6
20
-73.675
11
44.6
21
-73.675
0
LINE
8
0
10
31.1
20
-60.175
11
31.1
21
-73.175
0
LINE
8
0
10
45.1
20
-60.175
11
45.1
21
-73.175
0
ARC
8
0
10
31.6
20
-60.175
40
0.5
50
90
51
180
0
ARC
8
0
10
44.6
20
-60.175
40
0.5
50
0
51
90
0
ARC
8
0
10
31.6
20
-73.175
40
0.5
50
180
51
270
0
ARC
8
0
10
44.6
20
-73.175
40
0.5
50
270
51
0
0
LINE
8
0
10
50.65
20
-59.675
11
63.65
21
-59.675
0
LINE
8
0
10
50.65
20
-73.675
11
63.65
21
-73.675
0
LINE
8
0
10
50.15
20
-60.175
11
50.15
21
-73.175
0
LINE
8
0
10
64.15
20
-60.175
11
64.15
21
-73.175
0
ARC
8
0
10
50.65
20
-60.175
40
0.5
50
90
51
180
0
ARC
8
0
10
63.65
20
-60.175
40
0.5
50
0
51
90
0
ARC
8
0
10
50.65
20
-73.175
40
0.5
50
180
51
270
0
ARC
8
0
10
63.65
20
-73.175
40
0.5
50
270
51
0
0
LINE
8
0
10
69.7
20
-59.675
11
82.7
21
-59.675
0
LINE
8
0
10
69.7
20
-73.675
11
82.7
21
-73.675
0
LINE
8
0
10
69.2
20
-60.175
11
69.2
21
-73.175
0
LINE
8
0
10
83.2
20
-60.175
11
83.2
21
-73.175
0
ARC
8
0
10
69.7
20
-60.175
40
0.5
50
90
51
180
0
ARC
8
0
10
82.7
20
-60.175
40
0.5
50
0
51
90
0
ARC
8
0
10
69.7
20
-73.175
40
0.5
50
180
51
270
0
ARC
8
0
10
82.7
20
-73.175
40
0.5
50
270
51
0
0
LINE
8
0
10
88.75
20
-59.675
11
101.75
21
-59.675
0
LINE
8
0
10
88.75
20
-73.675
11
101.75
21
-73.675
0
LINE
8
0
10
88.25
20
-60.175
11
88.25
21
-73.175
0
LINE
8
0
10
102.25
20
-60.175
11
102.25
21
-73.175
0
ARC
8
0
10
88.75
20
-60.175
40
0.5
50
90
51
180
0
ARC
8
0
10
101.75
20
-60.175
40
0.5
50
0
51
90
0
ARC
8
0
10
88.75
20
-73.175
40
0.5
50
180
51
270
0
ARC
8
0
10
101.75
20
-73.175
40
0.5
50
270
51
0
0
LINE
8
0
10
107.8
20
-59.675
11
120.8
21
-59.675
0
LINE
8
0
10
107.8
20
-73.675
11
120.8
21
-73.675
0
LINE
8
0
10
107.3
20
-60.175
11
107.3
21
-73.175
0
LINE
8
0
10
121.3
20
-60.175
11
121.3
21
-73.175
0
ARC
8
0
10
107.8
20
-60.175
40
0.5
50
90
51
180
0
ARC
8
0
10
120.8
20
-60.175
40
0.5
50
0
51
90
0
ARC
8
0
10
107.8
20
-73.175
40
0.5
50
180
51
270
0
ARC
8
0
10
120.8
20
-73.175
40
0.5
50
270
51
0
0
LINE
8
0
10
126.85
20
-59.675
11
139.85
21
-59.675
0
LINE
8
0
10
126.85
20
-73.675
11
139.85
21
-73.675
0
LINE
8
0
10
126.35
20
-60.175
11
126.35
21
-73.175
0
LINE
8
0
10
140.35
20
-60.175
11
140.35
21
-73.175
0
ARC
8
0
10
126.85
20
-60.175
40
0.5
50
90
51
180
0
ARC
8
0
10
139.85
20
-60.175
40
0.5
50
0
51
90
0
ARC
8
0
10
126.85
20
-73.175
40
0.5
50
180
51
270
0
ARC
8
0
10
139.85
20
-73.175
40
0.5
50
270
51
0
0
LINE
8
0
10
145.9
20
-59.675
11
158.9
21
-59.675
0
LINE
8
0
10
145.9
20
-73.675
11
158.9
21
-73.675
0
LINE
8
0
10
145.4
20
-60.175
11
145.4
21
-73.175
0
LINE
8
0
10
159.4
20
-60.175
11
159.4
21
-73.175
0
ARC
8
0
10
145.9
20
-60.175
40
0.5
50
90
51
180
0
ARC
8
0
10
158.9
20
-60.175
40
0.5
50
0
51
90
0
ARC
8
0
10
145.9
20
-73.175
40
0.5
50
180
51
270
0
ARC
8
0
10
158.9
20
-73.175
40
0.5
50
270
51
0
0
LINE
8
0
10
164.95
20
-59.675
11
177.95
21
-59.675
0
LINE
8
0
10
164.95
20
-73.675
11
177.95
21
-73.675
0
LINE
8
0
10
164.45
20
-60.175
11
164.45
21
-73.175
0
LINE
8
0
10
178.45
20
-60.175
11
178.45
21
-73.175
0
ARC
8
0
10
164.95
20
-60.175
40
0.5
50
90
51
180
0
ARC
8
0
10
177.95
20
-60.175
40
0.5
50
0
51
90
0
ARC
8
0
10
164.95
20
-73.175
40
0.5
50
180
51
270
0
ARC
8
0
10
177.95
20
-73.175
40
0.5
50
270
51
0
0
LINE
8
0
10
184
20
-59.675
11
197
21
-59.675
0
LINE
8
0
10
184
20
-73.675
11
197
21
-73.675
0
LINE
8
0
10
183.5
20
-60.175
11
183.5
21
-73.175
0
LINE
8
0
10
197.5
20
-60.175
11
197.5
21
-73.175
0
ARC
8
0
10
184
20
-60.175
40
0.5
50
90
51
180
0
ARC
8
0
10
197
20
-60.175
40
0.5
50
0
51
90
0
ARC
8
0
10
184
20
-73.175
40
0.5
50
180
51
270
0
ARC
8
0
10
197
20
-73.175
40
0.5
50
270
51
0
0
LINE
8
0
10
203.05
20
-59.675
11
216.05
21
-59.675
0
LINE
8
0
10
203.05
20
-73.675
11
216.05
21
-73.675
0
LINE
8
0
10
202.55
20
-60.175
11
202.55
21
-73.175
0
LINE
8
0
10
216.55
20
-60.175
11
216.55
21
-73.175
0
ARC
8
0
10
203.05
20
-60.175
40
0.5
50
90
51
180
0
ARC
8
0
10
216.05
20
-60.175
40
0.5
50
0
51
90
0
ARC
8
0
10
203.05
20
-73.175
40
0.5
50
180
51
270
0
ARC
8
0
10
216.05
20
-73.175
40
0.5
50
270
51
0
0
LINE
8
0
10
222.1
20
-59.675
11
235.1
21
-59.675
0
LINE
8
0
10
222.1
20
-73.675
11
235.1
21
-73.675
0
LINE
8
0
10
221.6
20
-60.175
11
221.6
21
-73.175
0
LINE
8
0
10
235.6
20
-60.175
11
235.6
21
-73.175
0
ARC
8
0
10
222.1
20
-60.175
40
0.5
50
90
51
180
0
ARC
8
0
10
235.1
20
-60.175
40
0.5
50
0
51
90
0
ARC
8
0
10
222.1
20
-73.175
40
0.5
50
180
51
270
0
ARC
8
0
10
235.1
20
-73.175
40
0.5
50
270
51
0
0
LINE
8
0
10
241.15
20
-59.675
11
254.15
21
-59.675
0
LINE
8
0
10
241.15
20
-73.675
11
254.15
21
-73.675
0
LINE
8
0
10
240.65
20
-60.175
11
240.65
21
-73.175
0
LINE
8
0
10
254.65
20
-60.175
11
254.65
21
-73.175
0
ARC
8
0
10
241.15
20
-60.175
40
0.5
50
90
51
180
0
ARC
8
0
10
254.15
20
-60.175
40
0.5
50
0
51
90
0
ARC
8
0
10
241.15
20
-73.175
40
0.5
50
180
51
270
0
ARC
8
0
10
254.15
20
-73.175
40
0.5
50
270
51
0
0
LINE
8
0
10
260.2
20
-59.675
11
273.2
21
-59.675
0
LINE
8
0
10
260.2
20
-73.675
11
273.2
21
-73.675
0
LINE
8
0
10
259.7
20
-60.175
11
259.7
21
-73.175
0
LINE
8
0
10
273.7
20
-60.175
11
273.7
21
-73.175
0
ARC
8
0
10
260.2
20
-60.175
40
0.5
50
90
51
180
0
ARC
8
0
10
273.2
20
-60.175
40
0.5
50
0
51
90
0
ARC
8
0
10
260.2
20
-73.175
40
0.5
50
180
51
270
0
ARC
8
0
10
273.2
20
-73.175
40
0.5
50
270
51
0
0
LINE
8
0
10
279.25
20
-59.675
11
292.25
21
-59.675
0
LINE
8
0
10
279.25
20
-73.675
11
292.25
21
-73.675
0
LINE
8
0
10
278.75
20
-60.175
11
278.75
21
-73.175
0
LINE
8
0
10
292.75
20
-60.175
11
292.75
21
-73.175
0
ARC
8
0
10
279.25
20
-60.175
40
0.5
50
90
51
180
0
ARC
8
0
10
292.25
20
-60.175
40
0.5
50
0
51
90
0
ARC
8
0
10
279.25
20
-73.175
40
0.5
50
180
51
270
0
ARC
8
0
10
292.25
20
-73.175
40
0.5
50
270
51
0
0
LINE
8
0
10
3.025
20
-78.725
11
16.025
21
-78.725
0
LINE
8
0
10
3.025
20
-92.725
11
16.025
21
-92.725
0
LINE
8
0
10
2.525
20
-79.225
11
2.525
21
-92.225
0
LINE
8
0
10
16.525
20
-79.225
11
16.525
21
-92.225
0
ARC
8
0
10
3.025
20
-79.225
40
0.5
50
90
51
180
0
ARC
8
0
10
16.025
20
-79.225
40
0.5
50
0
51
90
0
ARC
8
0
10
3.025
20
-92.225
40
0.5
50
180
51
270
0
ARC
8
0
10
16.025
20
-92.225
40
0.5
50
270
51
0
0
LINE
8
0
10
41.125
20
-78.725
11
54.125
21
-78.725
0
LINE
8
0
10
41.125
20
-92.725
11
54.125
21
-92.725
0
LINE
8
0
10
40.625
20
-79.225
11
40.625
21
-92.225
0
LINE
8
0
10
54.625
20
-79.225
11
54.625
21
-92.225
0
ARC
8
0
10
41.125
20
-79.225
40
0.5
50
90
51
180
0
ARC
8
0
10
54.125
20
-79.225
40
0.5
50
0
51
90
0
ARC
8
0
10
41.125
20
-92.225
40
0.5
50
180
51
270
0
ARC
8
0
10
54.125
20
-92.225
40
0.5
50
270
51
0
0
LINE
8
0
10
60.175
20
-78.725
11
73.175
21
-78.725
0
LINE
8
0
10
60.175
20
-92.725
11
73.175
21
-92.725
0
LINE
8
0
10
59.675
20
-79.225
11
59.675
21
-92.225
0
LINE
8
0
10
73.675
20
-79.225
11
73.675
21
-92.225
0
ARC
8
0
10
60.175
20
-79.225
40
0.5
50
90
51
180
0
ARC
8
0
10
73.175
20
-79.225
40
0.5
50
0
51
90
0
ARC
8
0
10
60.175
20
-92.225
40
0.5
50
180
51
270
0
ARC
8
0
10
73.175
20
-92.225
40
0.5
50
270
51
0
0
LINE
8
0
10
79.225
20
-78.725
11
92.225
21
-78.725
0
LINE
8
0
10
79.225
20
-92.725
11
92.225
21
-92.725
0
LINE
8
0
10
78.725
20
-79.225
11
78.725
21
-92.225
0
LINE
8
0
10
92.725
20
-79.225
11
92.725
21
-92.225
0
ARC
8
0
10
79.225
20
-79.225
40
0.5
50
90
51
180
0
ARC
8
0
10
92.225
20
-79.225
40
0.5
50
0
51
90
0
ARC
8
0
10
79.225
20
-92.225
40
0.5
50
180
51
270
0
ARC
8
0
10
92.225
20
-92.225
40
0.5
50
270
51
0
0
LINE
8
0
10
79.225
20
-78.725
11
92.225
21
-78.725
0
LINE
8
0
10
79.225
20
-92.725
11
92.225
21
-92.725
0
LINE
8
0
10
78.725
20
-79.225
11
78.725
21
-92.225
0
LINE
8
0
10
92.725
20
-79.225
11
92.725
21
-92.225
0
ARC
8
0
10
79.225
20
-79.225
40
0.5
50
90
51
180
0
ARC
8
0
10
92.225
20
-79.225
40
0.5
50
0
51
90
0
ARC
8
0
10
79.225
20
-92.225
40
0.5
50
180
51
270
0
ARC
8
0
10
92.225
20
-92.225
40
0.5
50
270
51
0
0
LINE
8
0
10
98.275
20
-78.725
11
111.275
21
-78.725
0
LINE
8
0
10
98.275
20
-92.725
11
111.275
21
-92.725
0
LINE
8
0
10
97.775
20
-79.225
11
97.775
21
-92.225
0
LINE
8
0
10
111.775
20
-79.225
11
111.775
21
-92.225
0
ARC
8
0
10
98.275
20
-79.225
40
0.5
50
90
51
180
0
ARC
8
0
10
111.275
20
-79.225
40
0.5
50
0
51
90
0
ARC
8
0
10
98.275
20
-92.225
40
0.5
50
180
51
270
0
ARC
8
0
10
111.275
20
-92.225
40
0.5
50
270
51
0
0
LINE
8
0
10
117.325
20
-78.725
11
130.325
21
-78.725
0
LINE
8
0
10
117.325
20
-92.725
11
130.325
21
-92.725
0
LINE
8
0
10
116.825
20
-79.225
11
116.825
21
-92.225
0
LINE
8
0
10
130.825
20
-79.225
11
130.825
21
-92.225
0
ARC
8
0
10
117.325
20
-79.225
40
0.5
50
90
51
180
0
ARC
8
0
10
130.325
20
-79.225
40
0.5
50
0
51
90
0
ARC
8
0
10
117.325
20
-92.225
40
0.5
50
180
51
270
0
ARC
8
0
10
130.325
20
-92.225
40
0.5
50
270
51
0
0
LINE
8
0
10
136.375
20
-78.725
11
149.375
21
-78.725
0
LINE
8
0
10
136.375
20
-92.725
11
149.375
21
-92.725
0
LINE
8
0
10
135.875
20
-79.225
11
135.875
21
-92.225
0
LINE
8
0
10
149.875
20
-79.225
11
149.875
21
-92.225
0
ARC
8
0
10
136.375
20
-79.225
40
0.5
50
90
51
180
0
ARC
8
0
10
149.375
20
-79.225
40
0.5
50
0
51
90
0
ARC
8
0
10
136.375
20
-92.225
40
0.5
50
180
51
270
0
ARC
8
0
10
149.375
20
-92.225
40
0.5
50
270
51
0
0
LINE
8
0
10
155.425
20
-78.725
11
168.425
21
-78.725
0
LINE
8
0
10
155.425
20
-92.725
11
168.425
21
-92.725
0
LINE
8
0
10
154.925
20
-79.225
11
154.925
21
-92.225
0
LINE
8
0
10
168.925
20
-79.225
11
168.925
21
-92.225
0
ARC
8
0
10
155.425
20
-79.225
40
0.5
50
90
51
180
0
ARC
8
0
10
168.425
20
-79.225
40
0.5
50
0
51
90
0
ARC
8
0
10
155.425
20
-92.225
40
0.5
50
180
51
270
0
ARC
8
0
10
168.425
20
-92.225
40
0.5
50
270
51
0
0
LINE
8
0
10
174.475
20
-78.725
11
187.475
21
-78.725
0
LINE
8
0
10
174.475
20
-92.725
11
187.475
21
-92.725
0
LINE
8
0
10
173.975
20
-79.225
11
173.975
21
-92.225
0
LINE
8
0
10
187.975
20
-79.225
11
187.975
21
-92.225
0
ARC
8
0
10
174.475
20
-79.225
40
0.5
50
90
51
180
0
ARC
8
0
10
187.475
20
-79.225
40
0.5
50
0
51
90
0
ARC
8
0
10
174.475
20
-92.225
40
0.5
50
180
51
270
0
ARC
8
0
10
187.475
20
-92.225
40
0.5
50
270
51
0
0
LINE
8
0
10
193.525
20
-78.725
11
206.525
21
-78.725
0
LINE
8
0
10
193.525
20
-92.725
11
206.525
21
-92.725
0
LINE
8
0
10
193.025
20
-79.225
11
193.025
21
-92.225
0
LINE
8
0
10
207.025
20
-79.225
11
207.025
21
-92.225
0
ARC
8
0
10
193.525
20
-79.225
40
0.5
50
90
51
180
0
ARC
8
0
10
206.525
20
-79.225
40
0.5
50
0
51
90
0
ARC
8
0
10
193.525
20
-92.225
40
0.5
50
180
51
270
0
ARC
8
0
10
206.525
20
-92.225
40
0.5
50
270
51
0
0
LINE
8
0
10
212.575
20
-78.725
11
225.575
21
-78.725
0
LINE
8
0
10
212.575
20
-92.725
11
225.575
21
-92.725
0
LINE
8
0
10
212.075
20
-79.225
11
212.075
21
-92.225
0
LINE
8
0
10
226.075
20
-79.225
11
226.075
21
-92.225
0
ARC
8
0
10
212.575
20
-79.225
40
0.5
50
90
51
180
0
ARC
8
0
10
225.575
20
-79.225
40
0.5
50
0
51
90
0
ARC
8
0
10
212.575
20
-92.225
40
0.5
50
180
51
270
0
ARC
8
0
10
225.575
20
-92.225
40
0.5
50
270
51
0
0
LINE
8
0
10
231.625
20
-78.725
11
244.625
21
-78.725
0
LINE
8
0
10
231.625
20
-92.725
11
244.625
21
-92.725
0
LINE
8
0
10
231.125
20
-79.225
11
231.125
21
-92.225
0
LINE
8
0
10
245.125
20
-79.225
11
245.125
21
-92.225
0
ARC
8
0
10
231.625
20
-79.225
40
0.5
50
90
51
180
0
ARC
8
0
10
244.625
20
-79.225
40
0.5
50
0
51
90
0
ARC
8
0
10
231.625
20
-92.225
40
0.5
50
180
51
270
0
ARC
8
0
10
244.625
20
-92.225
40
0.5
50
270
51
0
0
LINE
8
0
10
260.2
20
-78.725
11
273.2
21
-78.725
0
LINE
8
0
10
260.2
20
-92.725
11
273.2
21
-92.725
0
LINE
8
0
10
259.7
20
-79.225
11
259.7
21
-92.225
0
LINE
8
0
10
273.7
20
-79.225
11
273.7
21
-92.225
0
ARC
8
0
10
260.2
20
-79.225
40
0.5
50
90
51
180
0
ARC
8
0
10
273.2
20
-79.225
40
0.5
50
0
51
90
0
ARC
8
0
10
260.2
20
-92.225
40
0.5
50
180
51
270
0
ARC
8
0
10
273.2
20
-92.225
40
0.5
50
270
51
0
0
LINE
8
0
10
288.775
20
-78.725
11
301.775
21
-78.725
0
LINE
8
0
10
288.775
20
-92.725
11
301.775
21
-92.725
0
LINE
8
0
10
288.275
20
-79.225
11
288.275
21
-92.225
0
LINE
8
0
10
302.275
20
-79.225
11
302.275
21
-92.225
0
ARC
8
0
10
288.775
20
-79.225
40
0.5
50
90
51
180
0
ARC
8
0
10
301.775
20
-79.225
40
0.5
50
0
51
90
0
ARC
8
0
10
288.775
20
-92.225
40
0.5
50
180
51
270
0
ARC
8
0
10
301.775
20
-92.225
40
0.5
50
270
51
0
0
LINE
8
0
10
3.025
20
-97.775
11
16.025
21
-97.775
0
LINE
8
0
10
3.025
20
-111.775
11
16.025
21
-111.775
0
LINE
8
0
10
2.525
20
-98.275
11
2.525
21
-111.275
0
LINE
8
0
10
16.525
20
-98.275
11
16.525
21
-111.275
0
ARC
8
0
10
3.025
20
-98.275
40
0.5
50
90
51
180
0
ARC
8
0
10
16.025
20
-98.275
40
0.5
50
0
51
90
0
ARC
8
0
10
3.025
20
-111.275
40
0.5
50
180
51
270
0
ARC
8
0
10
16.025
20
-111.275
40
0.5
50
270
51
0
0
LINE
8
0
10
50.65
20
-97.775
11
63.65
21
-97.775
0
LINE
8
0
10
50.65
20
-111.775
11
63.65
21
-111.775
0
LINE
8
0
10
50.15
20
-98.275
11
50.15
21
-111.275
0
LINE
8
0
10
64.15
20
-98.275
11
64.15
21
-111.275
0
ARC
8
0
10
50.65
20
-98.275
40
0.5
50
90
51
180
0
ARC
8
0
10
63.65
20
-98.275
40
0.5
50
0
51
90
0
ARC
8
0
10
50.65
20
-111.275
40
0.5
50
180
51
270
0
ARC
8
0
10
63.65
20
-111.275
40
0.5
50
270
51
0
0
LINE
8
0
10
69.7
20
-97.775
11
82.7
21
-97.775
0
LINE
8
0
10
69.7
20
-111.775
11
82.7
21
-111.775
0
LINE
8
0
10
69.2
20
-98.275
11
69.2
21
-111.275
0
LINE
8
0
10
83.2
20
-98.275
11
83.2
21
-111.275
0
ARC
8
0
10
69.7
20
-98.275
40
0.5
50
90
51
180
0
ARC
8
0
10
82.7
20
-98.275
40
0.5
50
0
51
90
0
ARC
8
0
10
69.7
20
-111.275
40
0.5
50
180
51
270
0
ARC
8
0
10
82.7
20
-111.275
40
0.5
50
270
51
0
0
LINE
8
0
10
88.75
20
-97.775
11
101.75
21
-97.775
0
LINE
8
0
10
88.75
20
-111.775
11
101.75
21
-111.775
0
LINE
8
0
10
88.25
20
-98.275
11
88.25
21
-111.275
0
LINE
8
0
10
102.25
20
-98.275
11
102.25
21
-111.275
0
ARC
8
0
10
88.75
20
-98.275
40
0.5
50
90
51
180
0
ARC
8
0
10
101.75
20
-98.275
40
0.5
50
0
51
90
0
ARC
8
0
10
88.75
20
-111.275
40
0.5
50
180
51
270
0
ARC
8
0
10
101.75
20
-111.275
40
0.5
50
270
51
0
0
LINE
8
0
10
107.8
20
-97.775
11
120.8
21
-97.775
0
LINE
8
0
10
107.8
20
-111.775
11
120.8
21
-111.775
0
LINE
8
0
10
107.3
20
-98.275
11
107.3
21
-111.275
0
LINE
8
0
10
121.3
20
-98.275
11
121.3
21
-111.275
0
ARC
8
0
10
107.8
20
-98.275
40
0.5
50
90
51
180
0
ARC
8
0
10
120.8
20
-98.275
40
0.5
50
0
51
90
0
ARC
8
0
10
107.8
20
-111.275
40
0.5
50
180
51
270
0
ARC
8
0
10
120.8
20
-111.275
40
0.5
50
270
51
0
0
LINE
8
0
10
126.85
20
-97.775
11
139.85
21
-97.775
0
LINE
8
0
10
126.85
20
-111.775
11
139.85
21
-111.775
0
LINE
8
0
10
126.35
20
-98.275
11
126.35
21
-111.275
0
LINE
8
0
10
140.35
20
-98.275
11
140.35
21
-111.275
0
ARC
8
0
10
126.85
20
-98.275
40
0.5
50
90
51
180
0
ARC
8
0
10
139.85
20
-98.275
40
0.5
50
0
51
90
0
ARC
8
0
10
126.85
20
-111.275
40
0.5
50
180
51
270
0
ARC
8
0
10
139.85
20
-111.275
40
0.5
50
270
51
0
0
LINE
8
0
10
145.9
20
-97.775
11
158.9
21
-97.775
0
LINE
8
0
10
145.9
20
-111.775
11
158.9
21
-111.775
0
LINE
8
0
10
145.4
20
-98.275
11
145.4
21
-111.275
0
LINE
8
0
10
159.4
20
-98.275
11
159.4
21
-111.275
0
ARC
8
0
10
145.9
20
-98.275
40
0.5
50
90
51
180
0
ARC
8
0
10
158.9
20
-98.275
40
0.5
50
0
51
90
0
ARC
8
0
10
145.9
20
-111.275
40
0.5
50
180
51
270
0
ARC
8
0
10
158.9
20
-111.275
40
0.5
50
270
51
0
0
LINE
8
0
10
164.95
20
-97.775
11
177.95
21
-97.775
0
LINE
8
0
10
164.95
20
-111.775
11
177.95
21
-111.775
0
LINE
8
0
10
164.45
20
-98.275
11
164.45
21
-111.275
0
LINE
8
0
10
178.45
20
-98.275
11
178.45
21
-111.275
0
ARC
8
0
10
164.95
20
-98.275
40
0.5
50
90
51
180
0
ARC
8
0
10
177.95
20
-98.275
40
0.5
50
0
51
90
0
ARC
8
0
10
164.95
20
-111.275
40
0.5
50
180
51
270
0
ARC
8
0
10
177.95
20
-111.275
40
0.5
50
270
51
0
0
LINE
8
0
10
184
20
-97.775
11
197
21
-97.775
0
LINE
8
0
10
184
20
-111.775
11
197
21
-111.775
0
LINE
8
0
10
183.5
20
-98.275
11
183.5
21
-111.275
0
LINE
8
0
10
197.5
20
-98.275
11
197.5
21
-111.275
0
ARC
8
0
10
184
20
-98.275
40
0.5
50
90
51
180
0
ARC
8
0
10
197
20
-98.275
40
0.5
50
0
51
90
0
ARC
8
0
10
184
20
-111.275
40
0.5
50
180
51
270
0
ARC
8
0
10
197
20
-111.275
40
0.5
50
270
51
0
0
LINE
8
0
10
203.05
20
-97.775
11
216.05
21
-97.775
0
LINE
8
0
10
203.05
20
-111.775
11
216.05
21
-111.775
0
LINE
8
0
10
202.55
20
-98.275
11
202.55
21
-111.275
0
LINE
8
0
10
216.55
20
-98.275
11
216.55
21
-111.275
0
ARC
8
0
10
203.05
20
-98.275
40
0.5
50
90
51
180
0
ARC
8
0
10
216.05
20
-98.275
40
0.5
50
0
51
90
0
ARC
8
0
10
203.05
20
-111.275
40
0.5
50
180
51
270
0
ARC
8
0
10
216.05
20
-111.275
40
0.5
50
270
51
0
0
LINE
8
0
10
222.1
20
-97.775
11
235.1
21
-97.775
0
LINE
8
0
10
222.1
20
-111.775
11
235.1
21
-111.775
0
LINE
8
0
10
221.6
20
-98.275
11
221.6
21
-111.275
0
LINE
8
0
10
235.6
20
-98.275
11
235.6
21
-111.275
0
ARC
8
0
10
222.1
20
-98.275
40
0.5
50
90
51
180
0
ARC
8
0
10
235.1
20
-98.275
40
0.5
50
0
51
90
0
ARC
8
0
10
222.1
20
-111.275
40
0.5
50
180
51
270
0
ARC
8
0
10
235.1
20
-111.275
40
0.5
50
270
51
0
0
LINE
8
0
10
241.15
20
-97.775
11
254.15
21
-97.775
0
LINE
8
0
10
241.15
20
-111.775
11
254.15
21
-111.775
0
LINE
8
0
10
240.65
20
-98.275
11
240.65
21
-111.275
0
LINE
8
0
10
254.65
20
-98.275
11
254.65
21
-111.275
0
ARC
8
0
10
241.15
20
-98.275
40
0.5
50
90
51
180
0
ARC
8
0
10
254.15
20
-98.275
40
0.5
50
0
51
90
0
ARC
8
0
10
241.15
20
-111.275
40
0.5
50
180
51
270
0
ARC
8
0
10
254.15
20
-111.275
40
0.5
50
270
51
0
0
LINE
8
0
10
260.2
20
-97.775
11
273.2
21
-97.775
0
LINE
8
0
10
260.2
20
-111.775
11
273.2
21
-111.775
0
LINE
8
0
10
259.7
20
-98.275
11
259.7
21
-111.275
0
LINE
8
0
10
273.7
20
-98.275
11
273.7
21
-111.275
0
ARC
8
0
10
260.2
20
-98.275
40
0.5
50
90
51
180
0
ARC
8
0
10
273.2
20
-98.275
40
0.5
50
0
51
90
0
ARC
8
0
10
260.2
20
-111.275
40
0.5
50
180
51
270
0
ARC
8
0
10
273.2
20
-111.275
40
0.5
50
270
51
0
0
LINE
8
0
10
279.25
20
-97.775
11
292.25
21
-97.775
0
LINE
8
0
10
279.25
20
-111.775
11
292.25
21
-111.775
0
LINE
8
0
10
278.75
20
-98.275
11
278.75
21
-111.275
0
LINE
8
0
10
292.75
20
-98.275
11
292.75
21
-111.275
0
ARC
8
0
10
279.25
20
-98.275
40
0.5
50
90
51
180
0
ARC
8
0
10
292.25
20
-98.275
40
0.5
50
0
51
90
0
ARC
8
0
10
279.25
20
-111.275
40
0.5
50
180
51
270
0
ARC
8
0
10
292.25
20
-111.275
40
0.5
50
270
51
0
0
LINE
8
0
10
298.3
20
-97.775
11
311.3
21
-97.775
0
LINE
8
0
10
298.3
20
-111.775
11
311.3
21
-111.775
0
LINE
8
0
10
297.8
20
-98.275
11
297.8
21
-111.275
0
LINE
8
0
10
311.8
20
-98.275
11
311.8
21
-111.275
0
ARC
8
0
10
298.3
20
-98.275
40
0.5
50
90
51
180
0
ARC
8
0
10
311.3
20
-98.275
40
0.5
50
0
51
90
0
ARC
8
0
10
298.3
20
-111.275
40
0.5
50
180
51
270
0
ARC
8
0
10
311.3
20
-111.275
40
0.5
50
270
51
0
0
LINE
8
0
10
3.025
20
-116.825
11
16.025
21
-116.825
0
LINE
8
0
10
3.025
20
-130.825
11
16.025
21
-130.825
0
LINE
8
0
10
2.525
20
-117.325
11
2.525
21
-130.325
0
LINE
8
0
10
16.525
20
-117.325
11
16.525
21
-130.325
0
ARC
8
0
10
3.025
20
-117.325
40
0.5
50
90
51
180
0
ARC
8
0
10
16.025
20
-117.325
40
0.5
50
0
51
90
0
ARC
8
0
10
3.025
20
-130.325
40
0.5
50
180
51
270
0
ARC
8
0
10
16.025
20
-130.325
40
0.5
50
270
51
0
0
LINE
8
0
10
22.075
20
-116.825
11
35.075
21
-116.825
0
LINE
8
0
10
22.075
20
-130.825
11
35.075
21
-130.825
0
LINE
8
0
10
21.575
20
-117.325
11
21.575
21
-130.325
0
LINE
8
0
10
35.575
20
-117.325
11
35.575
21
-130.325
0
ARC
8
0
10
22.075
20
-117.325
40
0.5
50
90
51
180
0
ARC
8
0
10
35.075
20
-117.325
40
0.5
50
0
51
90
0
ARC
8
0
10
22.075
20
-130.325
40
0.5
50
180
51
270
0
ARC
8
0
10
35.075
20
-130.325
40
0.5
50
270
51
0
0
LINE
8
0
10
41.125
20
-116.825
11
54.125
21
-116.825
0
LINE
8
0
10
41.125
20
-130.825
11
54.125
21
-130.825
0
LINE
8
0
10
40.625
20
-117.325
11
40.625
21
-130.325
0
LINE
8
0
10
54.625
20
-117.325
11
54.625
21
-130.325
0
ARC
8
0
10
41.125
20
-117.325
40
0.5
50
90
51
180
0
ARC
8
0
10
54.125
20
-117.325
40
0.5
50
0
51
90
0
ARC
8
0
10
41.125
20
-130.325
40
0.5
50
180
51
270
0
ARC
8
0
10
54.125
20
-130.325
40
0.5
50
270
51
0
0
LINE
8
0
10
60.175
20
-116.825
11
73.175
21
-116.825
0
LINE
8
0
10
60.175
20
-130.825
11
73.175
21
-130.825
0
LINE
8
0
10
59.675
20
-117.325
11
59.675
21
-130.325
0
LINE
8
0
10
73.675
20
-117.325
11
73.675
21
-130.325
0
ARC
8
0
10
60.175
20
-117.325
40
0.5
50
90
51
180
0
ARC
8
0
10
73.175
20
-117.325
40
0.5
50
0
51
90
0
ARC
8
0
10
60.175
20
-130.325
40
0.5
50
180
51
270
0
ARC
8
0
10
73.175
20
-130.325
40
0.5
50
270
51
0
0
LINE
8
0
10
126.85
20
-116.825
11
139.85
21
-116.825
0
LINE
8
0
10
126.85
20
-130.825
11
139.85
21
-130.825
0
LINE
8
0
10
126.35
20
-117.325
11
126.35
21
-130.325
0
LINE
8
0
10
140.35
20
-117.325
11
140.35
21
-130.325
0
ARC
8
0
10
126.85
20
-117.325
40
0.5
50
90
51
180
0
ARC
8
0
10
139.85
20
-117.325
40
0.5
50
0
51
90
0
ARC
8
0
10
126.85
20
-130.325
40
0.5
50
180
51
270
0
ARC
8
0
10
139.85
20
-130.325
40
0.5
50
270
51
0
0
LINE
8
0
10
184
20
-116.825
11
197
21
-116.825
0
LINE
8
0
10
184
20
-130.825
11
197
21
-130.825
0
LINE
8
0
10
183.5
20
-117.325
11
183.5
21
-130.325
0
LINE
8
0
10
197.5
20
-117.325
11
197.5
21
-130.325
0
ARC
8
0
10
184
20
-117.325
40
0.5
50
90
51
180
0
ARC
8
0
10
197
20
-117.325
40
0.5
50
0
51
90
0
ARC
8
0
10
184
20
-130.325
40
0.5
50
180
51
270
0
ARC
8
0
10
197
20
-130.325
40
0.5
50
270
51
0
0
LINE
8
0
10
203.05
20
-116.825
11
216.05
21
-116.825
0
LINE
8
0
10
203.05
20
-130.825
11
216.05
21
-130.825
0
LINE
8
0
10
202.55
20
-117.325
11
202.55
21
-130.325
0
LINE
8
0
10
216.55
20
-117.325
11
216.55
21
-130.325
0
ARC
8
0
10
203.05
20
-117.325
40
0.5
50
90
51
180
0
ARC
8
0
10
216.05
20
-117.325
40
0.5
50
0
51
90
0
ARC
8
0
10
203.05
20
-130.325
40
0.5
50
180
51
270
0
ARC
8
0
10
216.05
20
-130.325
40
0.5
50
270
51
0
0
LINE
8
0
10
222.1
20
-116.825
11
235.1
21
-116.825
0
LINE
8
0
10
222.1
20
-130.825
11
235.1
21
-130.825
0
LINE
8
0
10
221.6
20
-117.325
11
221.6
21
-130.325
0
LINE
8
0
10
235.6
20
-117.325
11
235.6
21
-130.325
0
ARC
8
0
10
222.1
20
-117.325
40
0.5
50
90
51
180
0
ARC
8
0
10
235.1
20
-117.325
40
0.5
50
0
51
90
0
ARC
8
0
10
222.1
20
-130.325
40
0.5
50
180
51
270
0
ARC
8
0
10
235.1
20
-130.325
40
0.5
50
270
51
0
0
LINE
8
0
10
241.15
20
-116.825
11
254.15
21
-116.825
0
LINE
8
0
10
241.15
20
-130.825
11
254.15
21
-130.825
0
LINE
8
0
10
240.65
20
-117.325
11
240.65
21
-130.325
0
LINE
8
0
10
254.65
20
-117.325
11
254.65
21
-130.325
0
ARC
8
0
10
241.15
20
-117.325
40
0.5
50
90
51
180
0
ARC
8
0
10
254.15
20
-117.325
40
0.5
50
0
51
90
0
ARC
8
0
10
241.15
20
-130.325
40
0.5
50
180
51
270
0
ARC
8
0
10
254.15
20
-130.325
40
0.5
50
270
51
0
0
LINE
8
0
10
260.2
20
-116.825
11
273.2
21
-116.825
0
LINE
8
0
10
260.2
20
-130.825
11
273.2
21
-130.825
0
LINE
8
0
10
259.7
20
-117.325
11
259.7
21
-130.325
0
LINE
8
0
10
273.7
20
-117.325
11
273.7
21
-130.325
0
ARC
8
0
10
260.2
20
-117.325
40
0.5
50
90
51
180
0
ARC
8
0
10
273.2
20
-117.325
40
0.5
50
0
51
90
0
ARC
8
0
10
260.2
20
-130.325
40
0.5
50
180
51
270
0
ARC
8
0
10
273.2
20
-130.325
40
0.5
50
270
51
0
0
LINE
8
0
10
279.25
20
-116.825
11
292.25
21
-116.825
0
LINE
8
0
10
279.25
20
-130.825
11
292.25
21
-130.825
0
LINE
8
0
10
278.75
20
-117.325
11
278.75
21
-130.325
0
LINE
8
0
10
292.75
20
-117.325
11
292.75
21
-130.325
0
ARC
8
0
10
279.25
20
-117.325
40
0.5
50
90
51
180
0
ARC
8
0
10
292.25
20
-117.325
40
0.5
50
0
51
90
0
ARC
8
0
10
279.25
20
-130.325
40
0.5
50
180
51
270
0
ARC
8
0
10
292.25
20
-130.325
40
0.5
50
270
51
0
0
LINE
8
0
10
298.3
20
-116.825
11
311.3
21
-116.825
0
LINE
8
0
10
298.3
20
-130.825
11
311.3
21
-130.825
0
LINE
8
0
10
297.8
20
-117.325
11
297.8
21
-130.325
0
LINE
8
0
10
311.8
20
-117.325
11
311.8
21
-130.325
0
ARC
8
0
10
298.3
20
-117.325
40
0.5
50
90
51
180
0
ARC
8
0
10
311.3
20
-117.325
40
0.5
50
0
51
90
0
ARC
8
0
10
298.3
20
-130.325
40
0.5
50
180
51
270
0
ARC
8
0
10
311.3
20
-130.325
40
0.5
50
270
51
0
0
LINE
8
0
10
0
20
-133.35
11
314.325
21
-133.35
0
LINE
8
0
10
0
20
0
11
314.325
21
0
0
LINE
8
0
10
0
20
-133.35
11
0
21
0
0
LINE
8
0
10
314.325
20
-133.35
11
314.325
21
0
0
ENDSEC
0
EOF